<svg width="11.000000" height="9.000000" viewBox="0 0 11 9" fill="none" xmlns="http://www.w3.org/2000/svg" xmlns:xlink="http://www.w3.org/1999/xlink">
	<desc>
			Created with Pixso.
	</desc>
	<defs/>
	<path id="Vector" d="M0 4.5C0 4.32959 0.0723877 4.16602 0.201294 4.04541C0.3302 3.92505 0.505127 3.85718 0.687378 3.85718L8.65186 3.85718L5.70007 1.09863C5.57104 0.978027 5.49854 0.814209 5.49854 0.643555C5.49854 0.4729 5.57104 0.309082 5.70007 0.188477C5.82922 0.0678711 6.00427 0 6.18677 0C6.36938 0 6.54443 0.0678711 6.67346 0.188477L10.7981 4.04492C10.8621 4.10474 10.9128 4.17554 10.9475 4.25366C10.9822 4.33179 11 4.41553 11 4.5C11 4.58447 10.9822 4.66821 10.9475 4.74634C10.9128 4.82446 10.8621 4.89526 10.7981 4.95508L6.67346 8.81152C6.54443 8.93213 6.36938 9 6.18677 9C6.00427 9 5.82922 8.93213 5.70007 8.81152C5.57104 8.69092 5.49854 8.5271 5.49854 8.35645C5.49854 8.18579 5.57104 8.02197 5.70007 7.90137L8.65186 5.14282L0.687378 5.14282C0.505127 5.14282 0.3302 5.07495 0.201294 4.95459C0.0723877 4.83398 0 4.67041 0 4.5Z" fill="#262626" fill-opacity="1.000000" fill-rule="evenodd"/>
</svg>
