<svg class='plus-icon' width="21.000000" height="20.625000" viewBox="0 0 21 20.625" fill="none" xmlns="http://www.w3.org/2000/svg" xmlns:xlink="http://www.w3.org/1999/xlink">
	<desc>
			Created with Pixso.
	</desc>
	<defs/>
	<path id="Vector" d="M20.5625 8.59375L12.25 8.59375L12.25 0.429688C12.25 0.193359 12.0531 0 11.8125 0L9.1875 0C8.9469 0 8.75 0.193359 8.75 0.429688L8.75 8.59375L0.4375 8.59375C0.196899 8.59375 0 8.78711 0 9.02344L0 11.6016C0 11.8379 0.196899 12.0312 0.4375 12.0312L8.75 12.0312L8.75 20.1953C8.75 20.4316 8.9469 20.625 9.1875 20.625L11.8125 20.625C12.0531 20.625 12.25 20.4316 12.25 20.1953L12.25 12.0312L20.5625 12.0312C20.8031 12.0312 21 11.8379 21 11.6016L21 9.02344C21 8.78711 20.8031 8.59375 20.5625 8.59375Z" fill="#2E2E2E" fill-opacity="1.000000" fill-rule="nonzero"/>
</svg>
