<svg width="11.000000" height="10.000000" viewBox="0 0 11 10" fill="none" xmlns="http://www.w3.org/2000/svg" xmlns:xlink="http://www.w3.org/1999/xlink">
	<desc>
			Created with Pixso.
	</desc>
	<defs/>
	<rect id="Vector" width="11.000000" height="10.000000" fill="#FFFFFF" fill-opacity="0"/>
	<path id="Vector" d="M11 5C11 5.18945 10.9276 5.37109 10.7987 5.50488C10.6698 5.63892 10.4949 5.71411 10.3126 5.71411L2.34814 5.71411L5.29993 8.7793C5.42896 8.91333 5.50146 9.09521 5.50146 9.28491C5.50146 9.47461 5.42896 9.65649 5.29993 9.79053C5.17078 9.92456 4.99573 10 4.81323 10C4.63062 10 4.45557 9.92456 4.32654 9.79053L0.201904 5.50562C0.137939 5.43921 0.0871582 5.3606 0.0524902 5.27368C0.0178223 5.18701 0 5.09399 0 5C0 4.90601 0.0178223 4.81299 0.0524902 4.72632C0.0871582 4.6394 0.137939 4.56079 0.201904 4.49438L4.32654 0.209473C4.45557 0.0754395 4.63062 0 4.81323 0C4.99573 0 5.17078 0.0754395 5.29993 0.209473C5.42896 0.343506 5.50146 0.525391 5.50146 0.715088C5.50146 0.904785 5.42896 1.08667 5.29993 1.2207L2.34814 4.28589L10.3126 4.28589C10.4949 4.28589 10.6698 4.36108 10.7987 4.49512C10.9276 4.62891 11 4.81055 11 5Z" fill="#262626" fill-opacity="1.000000" fill-rule="evenodd"/>
</svg>
